<svg version="1.1" xmlns="http://www.w3.org/2000/svg" xmlns:xlink="http://www.w3.org/1999/xlink" x="0px" y="0px"
	 viewBox="0 0 366.9 185.9" style="enable-background:new 0 0 366.9 185.9;" xml:space="preserve">
<style type="text/css">
	.st0{fill:#FFFFFF;}
	.st1{fill:#CCCCCC;}
	.st2{fill:#A6A6A6;}
	.st3{display:none;}
	.st4{display:inline;}
	.st5{fill:none;stroke:#ED1C24;stroke-width:0.3175;stroke-miterlimit:10;stroke-dasharray:2.1169;}
	.st6{display:inline;fill:none;stroke:#ED1C24;stroke-width:0.3175;stroke-miterlimit:10;stroke-dasharray:2.1169;}
	.st7{display:inline;fill:none;stroke:#ED1C24;stroke-width:0.3;stroke-miterlimit:10;stroke-dasharray:2;}
	.st8{display:inline;fill:none;stroke:#ED1C24;stroke-width:0.3;stroke-miterlimit:10;stroke-dasharray:1.9999;}
	.st9{fill:none;stroke:#ED1C24;stroke-width:0.3;stroke-miterlimit:10;}
	.st10{fill:#ED1C24;}
	.st11{display:inline;fill:#ED1C24;}
	.st12{display:inline;opacity:0.15;fill:#ED1C24;}
	.st13{display:inline;fill:none;stroke:#ED1C24;stroke-width:0.317;stroke-miterlimit:10;stroke-dasharray:2.1132;}
</style>
<g id="Logo">
	<path class="st0" d="M152.7,97.2V69.8h11.5v27.8c0,4.5,2.3,7.6,8,7.6c5.3,0,7.9-3.2,7.9-7.8V69.8h11.5v27.4
		c0,10.7-6.4,17.2-19.4,17.2C159.2,114.4,152.7,108.1,152.7,97.2z"/>
	<path class="st0" d="M196.9,80.3h10.2v4.5h0.2c2.5-3.6,5.7-5.5,10.3-5.5c7.3,0,11.6,5.2,11.6,12.6v21.6h-10.6V94.1
		c0-3.5-1.8-5.9-5.2-5.9c-3.5,0-5.8,2.9-5.8,7v18.4h-10.6V80.3z"/>
	<path class="st0" d="M234.6,67.2h10.6v8.6h-10.6V67.2z M234.6,80.3h10.6v33.3h-10.6V80.3z"/>
	<path class="st0" d="M253.5,104.8V88.9h-4.4v-8.6h4.4V69.8h10.3v10.5h6v8.6h-6v13.6c0,2.6,1.4,3.2,3.7,3.2c0.9,0,1.9-0.1,2.3-0.1
		v7.7c-0.9,0.3-2.9,0.5-5.8,0.5C257.9,114,253.5,112,253.5,104.8z"/>
	<path class="st0" d="M276.4,116.3h3.6c3.1,0,4.4-1.2,4.4-3.5c0-1.4-0.6-3.4-2-6.9l-9.8-25.6h11.2l4.5,14.2c1,3.2,2.1,7.7,2.1,7.7
		h0.1c0,0,0.9-4.4,1.9-7.7l4.4-14.2h10.6l-11.5,33.7c-2.7,7.8-5.8,10.5-12.5,10.5h-6.9V116.3z"/>
	<path class="st1" d="M130.2,112.2V67.2l-39-22.5v17.3l15.3,8.8c0.6,0.3,0.6,1.2,0,1.5c0,0-18.2,10.5-18.2,10.5
		c-0.5,0.3-1.2,0.3-1.7,0L68.4,72.2c-0.6-0.3-0.6-1.2,0-1.5l15.3-8.8l0-17.3l-39,22.5v45.1l0-0.2v0.2l15-8.6l0-17.7
		c0-0.6,0.7-1.1,1.3-0.7l18.2,10.5c0.5,0.3,0.9,0.9,0.9,1.5l0,21c0,0.6-0.7,1.1-1.3,0.7l-15.3-8.8l-15,8.6l39,22.5l39-22.5l-15-8.6
		l-15.3,8.8c-0.5,0.3-1.3-0.1-1.3-0.7c0,0,0-21,0-21c0-0.6,0.3-1.2,0.9-1.5l18.2-10.5c0.5-0.3,1.3,0.1,1.3,0.7v17.7L130.2,112.2z"/>
	<path class="st2" d="M87.4,141.3l39-22.5l-15-8.6l-15.3,8.8c-0.5,0.3-1.3-0.1-1.3-0.7c0,0,0-21,0-21c0-0.6,0.3-1.2,0.9-1.5
		l18.2-10.5c0.5-0.3,1.3,0.1,1.3,0.7c0,0,0,17.7,0,17.7l15,8.6V67.2L87.4,91.9L87.4,141.3z"/>
	<path class="st0" d="M91.1,44.6v17.3l15.3,8.8c0.6,0.3,0.6,1.2,0,1.5c0,0-18.2,10.5-18.2,10.5c-0.5,0.3-1.2,0.3-1.7,0L68.4,72.2
		c-0.6-0.3-0.6-1.2,0-1.5c0,0,15.3-8.8,15.3-8.8l0-17.3l-39,22.5l42.8,24.7l42.8-24.7L91.1,44.6z"/>
	<path class="st1" d="M78.6,118.9l-15.3-8.8l-15,8.6l39,22.5l0-49.4L44.6,67.2v45.1l0-0.2v0.2l15-8.6l0-17.7c0-0.6,0.7-1.1,1.3-0.7
		c0,0,18.2,10.5,18.2,10.5c0.5,0.3,0.9,0.9,0.9,1.5l0,21C79.9,118.8,79.2,119.2,78.6,118.9z"/>
	<g>
		<path class="st0" d="M321.9,82.9c-0.2-0.5-0.5-1-0.9-1.4c-0.4-0.4-0.8-0.7-1.4-0.9c-0.5-0.2-1.1-0.3-1.6-0.3s-1.1,0.1-1.6,0.3
			c-0.5,0.2-1,0.5-1.4,0.9s-0.7,0.8-0.9,1.4c-0.2,0.5-0.3,1.1-0.3,1.6c0,0.6,0.1,1.1,0.3,1.6c0.2,0.5,0.5,1,0.9,1.4s0.8,0.7,1.4,0.9
			c0.5,0.2,1.1,0.3,1.6,0.3s1.1-0.1,1.6-0.3c0.5-0.2,1-0.5,1.4-0.9c0.4-0.4,0.7-0.8,0.9-1.4c0.2-0.5,0.3-1.1,0.3-1.6
			C322.2,84,322.1,83.4,321.9,82.9z M320.8,86.2c-0.3,0.5-0.7,0.9-1.2,1.2c-0.5,0.3-1,0.4-1.6,0.4c-0.6,0-1.1-0.1-1.6-0.4
			c-0.5-0.3-0.9-0.7-1.2-1.2c-0.3-0.5-0.4-1-0.4-1.6c0-0.6,0.1-1.1,0.4-1.6c0.3-0.5,0.7-0.9,1.2-1.2c0.5-0.3,1-0.4,1.6-0.4
			c0.6,0,1.1,0.1,1.6,0.4c0.5,0.3,0.9,0.7,1.2,1.2c0.3,0.5,0.4,1,0.4,1.6C321.2,85.2,321.1,85.7,320.8,86.2z"/>
		<path class="st0" d="M319.5,84.6c0.1-0.2,0.2-0.4,0.2-0.7c0-0.3-0.1-0.5-0.2-0.7c-0.1-0.2-0.3-0.3-0.5-0.4
			c-0.2-0.1-0.4-0.1-0.5-0.1h-2v3.9h0.9v-1.3h0.9l0.7,1.3h0.9l-0.8-1.5C319.2,84.9,319.4,84.7,319.5,84.6z M317.4,83.2h0.8
			c0.1,0,0.2,0,0.4,0.1c0.1,0.1,0.2,0.2,0.2,0.5c0,0.2-0.1,0.4-0.2,0.5c-0.1,0.1-0.3,0.2-0.4,0.2h-0.8V83.2z"/>
	</g>
</g>
<g id="Guides" class="st3">
	<g class="st4">
		<line class="st5" x1="0" y1="67.2" x2="366.9" y2="67.2"/>
	</g>
	<line class="st6" x1="0" y1="113.6" x2="366.9" y2="113.6"/>
	<line class="st7" x1="44.6" y1="185.9" x2="44.6" y2="0"/>
	<line class="st7" x1="115.2" y1="185.9" x2="115.2" y2="0"/>
	<line class="st8" x1="196.9" y1="185.9" x2="196.9" y2="0"/>
	<line class="st8" x1="229.1" y1="185.9" x2="229.1" y2="0"/>
	<line class="st8" x1="234.6" y1="185.9" x2="234.6" y2="0"/>
	<line class="st7" x1="307.3" y1="185.9" x2="307.3" y2="0"/>
	<line class="st7" x1="313.8" y1="0" x2="313.8" y2="185.9"/>
	<line class="st7" x1="322.2" y1="0" x2="322.2" y2="185.9"/>
	<g class="st4">
		<g>
			<line class="st9" x1="38.6" y1="46.3" x2="38.6" y2="138.4"/>
			<g>
				<rect x="37.7" y="46.2" class="st10" width="2" height="0.3"/>
			</g>
			<g>
				<rect x="37.7" y="138.3" class="st10" width="2" height="0.3"/>
			</g>
		</g>
	</g>
	<path class="st11" d="M308.4,164.4l0.1,0c0.1,0,0.1,0,0.2,0c0,0,0.1-0.1,0.1-0.1l0.5-1.6c0,0,0,0,0-0.1c0,0,0,0,0-0.1
		c0,0,0-0.1,0-0.1c0,0-0.1,0-0.1,0l-0.2,0v0l0,0c0,0,0.1,0,0.2,0c0.1,0,0.2,0,0.3-0.1l0.1,0l0,0l0,0c0,0,0,0,0,0c0,0,0,0,0,0l-0.5,2
		c0,0,0,0,0,0c0,0,0,0,0,0c0,0,0,0.1,0.1,0.1s0.1,0,0.2,0v0L308.4,164.4L308.4,164.4z"/>
	<path class="st11" d="M310.7,162.3h0.2l-0.8,2.2h-0.2L310.7,162.3z"/>
	<path class="st11" d="M311,164.4c-0.1,0-0.2-0.1-0.2-0.2c0,0,0-0.1,0-0.1c0,0,0.1,0,0.1,0c0,0,0.1,0,0.2,0.1
		c0.1,0.1,0.2,0.1,0.2,0.1c0.1,0,0.3-0.1,0.4-0.2c0.1-0.1,0.2-0.3,0.2-0.5c0-0.2-0.1-0.4-0.2-0.5c-0.1-0.1-0.3-0.1-0.5-0.2V163
		l0.3-0.7h0.9l-0.1,0.2h-0.8l-0.1,0.3c0.2,0,0.4,0.1,0.6,0.2c0.1,0.1,0.2,0.3,0.2,0.5c0,0.2-0.1,0.5-0.3,0.7
		c-0.2,0.2-0.4,0.3-0.7,0.3C311.1,164.5,311.1,164.5,311,164.4z"/>
	<path class="st11" d="M309.6,166.3c-0.1,0.1-0.2,0.2-0.2,0.3c-0.1,0.2-0.2,0.4-0.3,0.6c-0.1,0.2-0.1,0.4-0.1,0.6c0,0.2,0,0.3,0,0.4
		c0,0.2,0,0.3,0,0.4c0,0.1,0.1,0.3,0.1,0.5l-0.1,0c-0.1-0.2-0.2-0.4-0.3-0.6c-0.1-0.2-0.1-0.4-0.1-0.6c0-0.3,0-0.5,0.1-0.7
		C308.9,166.8,309.2,166.5,309.6,166.3L309.6,166.3z"/>
	<path class="st11" d="M309.6,168.9C309.6,168.9,309.6,168.8,309.6,168.9c0.1,0,0.1,0,0.2,0c0,0,0,0,0.1,0l0,0c0,0,0,0,0,0s0,0,0,0
		c0.1,0,0.1-0.1,0.3-0.2s0.2-0.2,0.2-0.3c0-0.1,0-0.2-0.1-0.4c0-0.2-0.1-0.3-0.1-0.5c-0.1-0.2-0.1-0.3-0.1-0.4
		c0-0.1-0.1-0.1-0.2-0.1c0,0,0,0,0,0s0,0-0.1,0V167l0.4-0.1l0,0c0,0,0.1,0.1,0.2,0.4c0.1,0.2,0.1,0.4,0.1,0.5l0.1,0.4
		c0.1-0.2,0.2-0.3,0.2-0.4c0.1-0.2,0.2-0.3,0.2-0.4c0,0,0,0,0-0.1c0,0,0,0,0,0l0,0c0,0,0,0-0.1,0c0,0,0-0.1,0-0.1c0,0,0-0.1,0-0.1
		s0.1,0,0.1,0c0.1,0,0.1,0,0.1,0c0,0,0.1,0.1,0.1,0.2c0,0.1-0.1,0.3-0.2,0.6c-0.1,0.2-0.2,0.4-0.3,0.6c-0.2,0.2-0.3,0.4-0.4,0.5
		c-0.2,0.2-0.3,0.3-0.4,0.3c0,0-0.1,0-0.1,0S309.5,169,309.6,168.9C309.5,168.9,309.5,168.9,309.6,168.9z"/>
	<path class="st11" d="M311.1,169c0.1-0.1,0.2-0.2,0.3-0.3c0.1-0.2,0.2-0.3,0.3-0.6c0.1-0.2,0.1-0.4,0.1-0.5s0-0.3,0-0.5
		c0-0.2,0-0.4,0-0.5c0-0.1-0.1-0.3-0.1-0.4l0.1,0c0.1,0.2,0.2,0.4,0.2,0.6c0.1,0.2,0.1,0.4,0.1,0.6c0,0.2,0,0.5-0.1,0.6
		C311.8,168.4,311.6,168.7,311.1,169L311.1,169z"/>
	<path class="st11" d="M229.7,164.4l0.1,0c0.1,0,0.1,0,0.2,0c0,0,0.1-0.1,0.1-0.1l0.5-1.6c0,0,0,0,0-0.1c0,0,0,0,0-0.1
		c0,0,0-0.1,0-0.1c0,0-0.1,0-0.1,0l-0.2,0v0l0,0c0,0,0.1,0,0.2,0c0.1,0,0.2,0,0.3-0.1l0.1,0l0,0l0,0c0,0,0,0,0,0c0,0,0,0,0,0l-0.5,2
		c0,0,0,0,0,0c0,0,0,0,0,0c0,0,0,0.1,0.1,0.1s0.1,0,0.2,0v0L229.7,164.4L229.7,164.4z"/>
	<path class="st11" d="M232,162.3h0.2l-0.8,2.2h-0.2L232,162.3z"/>
	<path class="st11" d="M230.9,166.3c-0.1,0.1-0.2,0.2-0.2,0.3c-0.1,0.2-0.2,0.4-0.3,0.6c-0.1,0.2-0.1,0.4-0.1,0.6c0,0.2,0,0.3,0,0.4
		c0,0.2,0,0.3,0,0.4c0,0.1,0.1,0.3,0.1,0.5l-0.1,0c-0.1-0.2-0.2-0.4-0.3-0.6c-0.1-0.2-0.1-0.4-0.1-0.6c0-0.3,0-0.5,0.1-0.7
		C230.2,166.8,230.5,166.5,230.9,166.3L230.9,166.3z"/>
	<path class="st11" d="M230.9,168.9C230.9,168.9,230.9,168.8,230.9,168.9c0.1,0,0.1,0,0.2,0c0,0,0,0,0.1,0l0,0c0,0,0,0,0,0s0,0,0,0
		c0.1,0,0.1-0.1,0.3-0.2s0.2-0.2,0.2-0.3c0-0.1,0-0.2-0.1-0.4c0-0.2-0.1-0.3-0.1-0.5c-0.1-0.2-0.1-0.3-0.1-0.4
		c0-0.1-0.1-0.1-0.2-0.1c0,0,0,0,0,0s0,0-0.1,0V167l0.4-0.1l0,0c0,0,0.1,0.1,0.2,0.4c0.1,0.2,0.1,0.4,0.1,0.5l0.1,0.4
		c0.1-0.2,0.2-0.3,0.2-0.4c0.1-0.2,0.2-0.3,0.2-0.4c0,0,0,0,0-0.1c0,0,0,0,0,0l0,0c0,0,0,0-0.1,0c0,0,0-0.1,0-0.1c0,0,0-0.1,0-0.1
		s0.1,0,0.1,0c0.1,0,0.1,0,0.1,0c0,0,0.1,0.1,0.1,0.2c0,0.1-0.1,0.3-0.2,0.6c-0.1,0.2-0.2,0.4-0.3,0.6c-0.2,0.2-0.3,0.4-0.4,0.5
		c-0.2,0.2-0.3,0.3-0.4,0.3c0,0-0.1,0-0.1,0S230.8,169,230.9,168.9C230.8,168.9,230.9,168.9,230.9,168.9z"/>
	<path class="st11" d="M232.5,169c0.1-0.1,0.2-0.2,0.3-0.3c0.1-0.2,0.2-0.3,0.3-0.6c0.1-0.2,0.1-0.4,0.1-0.5s0-0.3,0-0.5
		c0-0.2,0-0.4,0-0.5c0-0.1-0.1-0.3-0.1-0.4l0.1,0c0.1,0.2,0.2,0.4,0.2,0.6c0.1,0.2,0.1,0.4,0.1,0.6c0,0.2,0,0.5-0.1,0.6
		C233.1,168.4,232.9,168.7,232.5,169L232.5,169z"/>
	<path class="st11" d="M121.5,162.3c-0.1,0.1-0.2,0.2-0.2,0.3c-0.1,0.2-0.2,0.4-0.3,0.6c-0.1,0.2-0.1,0.4-0.1,0.6c0,0.2,0,0.3,0,0.4
		c0,0.2,0,0.3,0,0.4c0,0.1,0.1,0.3,0.1,0.5l-0.1,0c-0.1-0.2-0.2-0.4-0.3-0.6c-0.1-0.2-0.1-0.4-0.1-0.6c0-0.3,0-0.5,0.1-0.7
		C120.8,162.8,121.1,162.5,121.5,162.3L121.5,162.3z"/>
	<path class="st11" d="M121.5,164.2C121.5,164.2,121.5,164.2,121.5,164.2c0.1,0,0.1,0,0.1,0c0,0,0,0,0,0l0.1,0c0,0,0,0,0,0s0,0,0,0
		c0,0,0,0,0.1,0s0.1-0.1,0.1-0.1c0-0.1,0.1-0.2,0.3-0.4c0,0,0-0.1,0-0.2c0-0.1,0-0.2-0.1-0.3s0-0.1-0.1-0.2c0,0,0,0-0.1,0
		c0,0,0,0-0.1,0c0,0-0.1,0-0.1,0l0,0l0.2-0.1c0,0,0.1,0,0.1,0c0,0,0.1,0,0.1,0c0,0,0.1,0,0.1,0c0,0,0.1,0.1,0.1,0.3l0,0.2
		c0.1-0.1,0.2-0.3,0.2-0.3c0-0.1,0.1-0.1,0.1-0.1c0,0,0.1,0,0.1,0c0,0,0.1,0,0.1,0c0,0,0.1,0.1,0.1,0.1c0,0,0,0.1,0,0.1s0,0-0.1,0
		c0,0,0,0,0,0c0,0,0,0,0,0l0,0c0,0,0,0,0,0c0,0,0,0,0,0c0,0-0.1,0.1-0.2,0.2s-0.1,0.2-0.1,0.2c0,0,0,0.1,0,0.2c0,0.1,0,0.2,0.1,0.3
		c0,0.1,0,0.2,0.1,0.2c0,0.1,0.1,0.1,0.1,0.1c0,0,0.1,0,0.1,0s0.1-0.1,0.1-0.2l0,0c0,0.1-0.1,0.2-0.1,0.2c-0.1,0.1-0.2,0.2-0.3,0.2
		c-0.1,0-0.1,0-0.1-0.1c0,0,0-0.1-0.1-0.1l-0.1-0.4l-0.3,0.4c-0.1,0.1-0.1,0.1-0.2,0.2c0,0-0.1,0-0.1,0c-0.1,0-0.1,0-0.1-0.1
		C121.4,164.4,121.4,164.4,121.5,164.2C121.4,164.3,121.4,164.3,121.5,164.2z"/>
	<path class="st11" d="M123.1,165c0.1-0.1,0.2-0.2,0.3-0.3c0.1-0.2,0.2-0.3,0.3-0.6c0.1-0.2,0.1-0.4,0.1-0.5s0-0.3,0-0.5
		c0-0.2,0-0.4,0-0.5c0-0.1-0.1-0.3-0.1-0.4l0.1,0c0.1,0.2,0.2,0.4,0.2,0.6c0.1,0.2,0.1,0.4,0.1,0.6c0,0.2,0,0.5-0.1,0.6
		C123.7,164.4,123.5,164.7,123.1,165L123.1,165z"/>
	<path class="st11" d="M138.2,164.4l0.1,0c0.1,0,0.1,0,0.2,0c0,0,0.1-0.1,0.1-0.1l0.5-1.6c0,0,0,0,0-0.1c0,0,0,0,0-0.1
		c0,0,0-0.1,0-0.1c0,0-0.1,0-0.1,0l-0.2,0v0l0,0c0,0,0.1,0,0.2,0c0.1,0,0.2,0,0.3-0.1l0.1,0l0,0l0,0c0,0,0,0,0,0c0,0,0,0,0,0l-0.5,2
		c0,0,0,0,0,0c0,0,0,0,0,0c0,0,0,0.1,0.1,0.1s0.1,0,0.2,0v0L138.2,164.4L138.2,164.4z"/>
	<path class="st11" d="M140.1,164.4c0,0-0.1-0.1-0.1-0.1c0-0.1,0-0.1,0.1-0.1s0.1-0.1,0.1-0.1s0.1,0,0.1,0.1s0.1,0.1,0.1,0.1
		c0,0.1,0,0.1-0.1,0.1c0,0-0.1,0.1-0.1,0.1S140.2,164.5,140.1,164.4z"/>
	<path class="st11" d="M140.7,164.4c-0.1,0-0.2-0.1-0.2-0.2c0,0,0-0.1,0-0.1c0,0,0.1,0,0.1,0c0,0,0.1,0,0.2,0.1
		c0.1,0.1,0.2,0.1,0.2,0.1c0.1,0,0.3-0.1,0.4-0.2c0.1-0.1,0.2-0.3,0.2-0.5c0-0.2-0.1-0.4-0.2-0.5c-0.1-0.1-0.3-0.1-0.5-0.2V163
		l0.3-0.7h0.9l-0.1,0.2h-0.8l-0.1,0.3c0.2,0,0.4,0.1,0.6,0.2c0.1,0.1,0.2,0.3,0.2,0.5c0,0.2-0.1,0.5-0.3,0.7
		c-0.2,0.2-0.4,0.3-0.7,0.3C140.9,164.5,140.8,164.5,140.7,164.4z"/>
	<path class="st11" d="M144.1,162.3c-0.1,0.1-0.2,0.2-0.2,0.3c-0.1,0.2-0.2,0.4-0.3,0.6c-0.1,0.2-0.1,0.4-0.1,0.6c0,0.2,0,0.3,0,0.4
		c0,0.2,0,0.3,0,0.4c0,0.1,0.1,0.3,0.1,0.5l-0.1,0c-0.1-0.2-0.2-0.4-0.3-0.6c-0.1-0.2-0.1-0.4-0.1-0.6c0-0.3,0-0.5,0.1-0.7
		C143.4,162.8,143.7,162.5,144.1,162.3L144.1,162.3z"/>
	<path class="st11" d="M144.1,164.2C144.1,164.2,144.1,164.2,144.1,164.2c0.1,0,0.1,0,0.1,0c0,0,0,0,0,0l0.1,0c0,0,0,0,0,0s0,0,0,0
		c0,0,0,0,0.1,0c0,0,0.1-0.1,0.1-0.1c0-0.1,0.1-0.2,0.3-0.4c0,0,0-0.1,0-0.2c0-0.1,0-0.2-0.1-0.3s0-0.1-0.1-0.2c0,0,0,0-0.1,0
		c0,0,0,0-0.1,0c0,0-0.1,0-0.1,0l0,0l0.2-0.1c0,0,0.1,0,0.1,0c0,0,0.1,0,0.1,0c0,0,0.1,0,0.1,0c0,0,0.1,0.1,0.1,0.3l0,0.2
		c0.1-0.1,0.2-0.3,0.2-0.3c0-0.1,0.1-0.1,0.1-0.1c0,0,0.1,0,0.1,0c0,0,0.1,0,0.1,0c0,0,0.1,0.1,0.1,0.1c0,0,0,0.1,0,0.1s0,0-0.1,0
		c0,0,0,0,0,0c0,0,0,0,0,0l0,0c0,0,0,0,0,0c0,0,0,0,0,0c0,0-0.1,0.1-0.2,0.2s-0.1,0.2-0.1,0.2c0,0,0,0.1,0,0.2c0,0.1,0,0.2,0.1,0.3
		c0,0.1,0,0.2,0.1,0.2c0,0.1,0.1,0.1,0.1,0.1c0,0,0.1,0,0.1,0s0.1-0.1,0.1-0.2l0,0c0,0.1-0.1,0.2-0.1,0.2c-0.1,0.1-0.2,0.2-0.3,0.2
		c-0.1,0-0.1,0-0.1-0.1c0,0,0-0.1-0.1-0.1l-0.1-0.4l-0.3,0.4c-0.1,0.1-0.1,0.1-0.2,0.2c0,0-0.1,0-0.1,0c-0.1,0-0.1,0-0.1-0.1
		C144.1,164.4,144,164.4,144.1,164.2C144,164.3,144.1,164.3,144.1,164.2z"/>
	<path class="st11" d="M145.7,165c0.1-0.1,0.2-0.2,0.3-0.3c0.1-0.2,0.2-0.3,0.3-0.6c0.1-0.2,0.1-0.4,0.1-0.5s0-0.3,0-0.5
		c0-0.2,0-0.4,0-0.5c0-0.1-0.1-0.3-0.1-0.4l0.1,0c0.1,0.2,0.2,0.4,0.2,0.6c0.1,0.2,0.1,0.4,0.1,0.6c0,0.2,0,0.5-0.1,0.6
		C146.3,164.4,146.1,164.7,145.7,165L145.7,165z"/>
	<path class="st11" d="M212.2,162.3c-0.1,0.1-0.2,0.2-0.2,0.3c-0.1,0.2-0.2,0.4-0.3,0.6c-0.1,0.2-0.1,0.4-0.1,0.6c0,0.2,0,0.3,0,0.4
		c0,0.2,0,0.3,0,0.4c0,0.1,0.1,0.3,0.1,0.5l-0.1,0c-0.1-0.2-0.2-0.4-0.3-0.6c-0.1-0.2-0.1-0.4-0.1-0.6c0-0.3,0-0.5,0.1-0.7
		C211.5,162.8,211.8,162.5,212.2,162.3L212.2,162.3z"/>
	<path class="st11" d="M212.2,164.9C212.2,164.9,212.2,164.9,212.2,164.9c0.1,0,0.1,0,0.2,0c0,0,0,0,0.1,0l0,0c0,0,0,0,0,0s0,0,0,0
		c0.1,0,0.1-0.1,0.3-0.2s0.2-0.2,0.2-0.3c0-0.1,0-0.2-0.1-0.4c0-0.2-0.1-0.3-0.1-0.5c-0.1-0.2-0.1-0.3-0.1-0.4
		c0-0.1-0.1-0.1-0.2-0.1c0,0,0,0,0,0s0,0-0.1,0v-0.1l0.4-0.1l0,0c0,0,0.1,0.1,0.2,0.4c0.1,0.2,0.1,0.4,0.1,0.5l0.1,0.4
		c0.1-0.2,0.2-0.3,0.2-0.4c0.1-0.2,0.2-0.3,0.2-0.4c0,0,0,0,0-0.1c0,0,0,0,0,0l0,0c0,0,0,0-0.1,0c0,0,0-0.1,0-0.1c0,0,0-0.1,0-0.1
		s0.1,0,0.1,0c0.1,0,0.1,0,0.1,0c0,0,0.1,0.1,0.1,0.2c0,0.1-0.1,0.3-0.2,0.6c-0.1,0.2-0.2,0.4-0.3,0.6c-0.2,0.2-0.3,0.4-0.4,0.5
		c-0.2,0.2-0.3,0.3-0.4,0.3c0,0-0.1,0-0.1,0S212.2,165,212.2,164.9C212.2,164.9,212.2,164.9,212.2,164.9z"/>
	<path class="st11" d="M213.8,165c0.1-0.1,0.2-0.2,0.3-0.3c0.1-0.2,0.2-0.3,0.3-0.6c0.1-0.2,0.1-0.4,0.1-0.5s0-0.3,0-0.5
		c0-0.2,0-0.4,0-0.5c0-0.1-0.1-0.3-0.1-0.4l0.1,0c0.1,0.2,0.2,0.4,0.2,0.6c0.1,0.2,0.1,0.4,0.1,0.6c0,0.2,0,0.5-0.1,0.6
		C214.4,164.4,214.2,164.7,213.8,165L213.8,165z"/>
	<path class="st11" d="M29.2,96.4C29.3,96.4,29.3,96.4,29.2,96.4l0.2,0.1c0,0,0.1,0,0.1,0.1c0,0,0.1,0,0.1,0c0.1,0,0.2-0.1,0.3-0.2
		c0.1-0.1,0.1-0.2,0.1-0.4c0-0.2,0-0.3-0.1-0.4c-0.1-0.1-0.2-0.1-0.4-0.1c0,0,0,0,0,0c0,0,0,0,0,0l0-0.1c0.3,0,0.5-0.1,0.6-0.2
		c0.1-0.1,0.2-0.2,0.2-0.3c0-0.1,0-0.1-0.1-0.2c0-0.1-0.1-0.1-0.2-0.1c-0.1,0-0.1,0-0.2,0.1c-0.1,0-0.1,0.1-0.2,0.2l-0.1,0
		c0.1-0.1,0.1-0.2,0.2-0.3c0.1-0.1,0.2-0.1,0.3-0.1c0.1,0,0.3,0,0.3,0.1s0.1,0.2,0.1,0.3c0,0.1-0.1,0.2-0.2,0.3
		c-0.1,0.1-0.2,0.1-0.4,0.2v0c0.1,0,0.1,0.1,0.2,0.1c0.1,0.1,0.1,0.2,0.1,0.4c0,0.2-0.1,0.4-0.3,0.6c-0.2,0.2-0.4,0.3-0.7,0.3
		c-0.1,0-0.2,0-0.2,0c-0.1,0-0.2-0.1-0.2-0.2c0,0,0-0.1,0-0.1C29.1,96.4,29.1,96.3,29.2,96.4C29.2,96.3,29.2,96.3,29.2,96.4z"/>
	<path class="st11" d="M31.7,94.5c-0.1,0.1-0.2,0.2-0.2,0.3c-0.1,0.2-0.2,0.4-0.3,0.6c-0.1,0.2-0.1,0.4-0.1,0.6c0,0.2,0,0.3,0,0.4
		c0,0.2,0,0.3,0,0.4c0,0.1,0.1,0.3,0.1,0.5l-0.1,0c-0.1-0.2-0.2-0.4-0.3-0.6c-0.1-0.2-0.1-0.4-0.1-0.6c0-0.3,0-0.5,0.1-0.7
		C31,95,31.3,94.7,31.7,94.5L31.7,94.5z"/>
	<path class="st11" d="M31.7,97.1C31.7,97.1,31.7,97,31.7,97.1c0.1,0,0.1,0,0.2,0c0,0,0,0,0.1,0l0,0c0,0,0,0,0,0s0,0,0,0
		c0.1,0,0.1-0.1,0.3-0.2s0.2-0.2,0.2-0.3c0-0.1,0-0.2-0.1-0.4c0-0.2-0.1-0.3-0.1-0.5c-0.1-0.2-0.1-0.3-0.1-0.4
		c0-0.1-0.1-0.1-0.2-0.1c0,0,0,0,0,0s0,0-0.1,0v-0.1l0.4-0.1l0,0c0,0,0.1,0.1,0.2,0.4c0.1,0.2,0.1,0.4,0.1,0.5l0.1,0.4
		c0.1-0.2,0.2-0.3,0.2-0.4c0.1-0.2,0.2-0.3,0.2-0.4c0,0,0,0,0-0.1c0,0,0,0,0,0l0,0c0,0,0,0-0.1,0c0,0,0-0.1,0-0.1c0,0,0-0.1,0-0.1
		s0.1,0,0.1,0c0.1,0,0.1,0,0.1,0c0,0,0.1,0.1,0.1,0.2c0,0.1-0.1,0.3-0.2,0.6c-0.1,0.2-0.2,0.4-0.3,0.6c-0.2,0.2-0.3,0.4-0.4,0.5
		c-0.2,0.2-0.3,0.3-0.4,0.3c0,0-0.1,0-0.1,0S31.7,97.2,31.7,97.1C31.7,97.1,31.7,97.1,31.7,97.1z"/>
	<path class="st11" d="M33.3,97.2c0.1-0.1,0.2-0.2,0.3-0.3c0.1-0.2,0.2-0.3,0.3-0.6c0.1-0.2,0.1-0.4,0.1-0.5s0-0.3,0-0.5
		c0-0.2,0-0.4,0-0.5c0-0.1-0.1-0.3-0.1-0.4l0.1,0c0.1,0.2,0.2,0.4,0.2,0.6c0.1,0.2,0.1,0.4,0.1,0.6c0,0.2,0,0.5-0.1,0.6
		C33.9,96.6,33.7,96.9,33.3,97.2L33.3,97.2z"/>
	<line class="st8" x1="130.2" y1="0" x2="130.2" y2="185.9"/>
	<line class="st8" x1="152.7" y1="185.9" x2="152.7" y2="0"/>
	<path class="st11" d="M333.1,177.2h0.3v1h1.2v-1h0.3v2.2h-0.3v-1h-1.2v1h-0.3V177.2z"/>
	<path class="st11" d="M335.3,178.6c0-0.5,0.3-0.9,0.7-0.9c0.3,0,0.7,0.2,0.7,0.8v0.1h-1.2c0,0.4,0.2,0.5,0.5,0.5
		c0.2,0,0.3-0.1,0.4-0.3l0.2,0.1c-0.1,0.2-0.3,0.4-0.7,0.4C335.5,179.4,335.3,179.1,335.3,178.6z M336.4,178.4
		c0-0.3-0.2-0.5-0.4-0.5c-0.3,0-0.5,0.2-0.5,0.5H336.4z"/>
	<path class="st11" d="M337,177.3c0-0.1,0.1-0.2,0.2-0.2c0.1,0,0.2,0.1,0.2,0.2s-0.1,0.2-0.2,0.2C337.1,177.5,337,177.4,337,177.3z
		 M337.1,177.7h0.3v1.6h-0.3V177.7z"/>
	<path class="st11" d="M337.8,179.7l0.2-0.1c0.1,0.1,0.2,0.2,0.5,0.2c0.3,0,0.5-0.1,0.5-0.4v-0.3h0c-0.1,0.1-0.2,0.3-0.5,0.3
		c-0.4,0-0.7-0.3-0.7-0.8c0-0.5,0.3-0.8,0.7-0.8c0.3,0,0.4,0.2,0.5,0.3h0v-0.3h0.2v1.7c0,0.4-0.3,0.6-0.7,0.6
		C338.1,180,337.9,179.9,337.8,179.7z M338.9,178.6c0-0.4-0.2-0.6-0.5-0.6c-0.3,0-0.5,0.3-0.5,0.6c0,0.3,0.2,0.6,0.5,0.6
		C338.7,179.1,338.9,178.9,338.9,178.6z"/>
	<path class="st11" d="M339.9,179.4h-0.3v-2.2h0.3v0.8h0c0.1-0.2,0.2-0.3,0.5-0.3c0.3,0,0.6,0.2,0.6,0.6v1h-0.3v-1
		c0-0.3-0.1-0.4-0.4-0.4c-0.2,0-0.4,0.2-0.4,0.4V179.4z"/>
	<path class="st11" d="M342.1,178h-0.4v1c0,0.2,0.1,0.2,0.2,0.2c0.1,0,0.1,0,0.1,0l0.1,0.2c0,0-0.1,0-0.2,0c-0.2,0-0.4-0.1-0.4-0.4
		v-1h-0.2v-0.2h0.2v-0.4h0.3v0.4h0.4V178z"/>
	<path class="st11" d="M343.2,178.6c0-0.5,0.3-0.9,0.7-0.9s0.7,0.3,0.7,0.9c0,0.5-0.3,0.8-0.7,0.8S343.2,179.1,343.2,178.6z
		 M344.5,178.6c0-0.3-0.2-0.6-0.5-0.6c-0.3,0-0.5,0.3-0.5,0.6s0.2,0.6,0.5,0.6C344.3,179.2,344.5,178.9,344.5,178.6z"/>
	<path class="st11" d="M345.8,178h-0.4v1.4h-0.3V178H345v-0.2h0.3v-0.2c0-0.3,0.2-0.4,0.5-0.4c0.1,0,0.2,0,0.2,0l-0.1,0.2
		c0,0-0.1,0-0.1,0c-0.2,0-0.2,0.1-0.2,0.2v0.2h0.4V178z"/>
	<path class="st11" d="M347,178c0-0.5,0.4-0.9,0.9-0.9c0.5,0,0.9,0.4,0.9,0.9c0,0.5-0.4,0.9-0.9,0.9C347.3,178.9,347,178.5,347,178z
		 M348.5,178c0-0.4-0.3-0.6-0.6-0.6c-0.4,0-0.7,0.3-0.7,0.6c0,0.4,0.3,0.6,0.7,0.6C348.2,178.7,348.5,178.4,348.5,178z M347.5,177.6
		h0.4c0.1,0,0.2,0.1,0.2,0.3c0,0.1-0.1,0.2-0.1,0.2l0.2,0.3H348l-0.1-0.3h-0.2v0.3h-0.2V177.6z M347.9,178c0,0,0.1,0,0.1-0.1
		c0-0.1-0.1-0.1-0.1-0.1h-0.2v0.3H347.9z"/>
	<path class="st11" d="M333.2,181.7h1.3v0.2h-1.3V181.7z M333.2,182.3h1.3v0.2h-1.3V182.3z"/>
	<path class="st11" d="M336.2,183h-0.3v-2.2h0.3v0.8h0c0.1-0.2,0.2-0.3,0.5-0.3c0.3,0,0.6,0.2,0.6,0.6v1H337v-1
		c0-0.3-0.1-0.4-0.4-0.4c-0.2,0-0.4,0.2-0.4,0.4V183z"/>
	<path class="st11" d="M337.6,182.2c0-0.5,0.3-0.9,0.7-0.9c0.3,0,0.7,0.2,0.7,0.8v0.1h-1.2c0,0.4,0.2,0.5,0.5,0.5
		c0.2,0,0.3-0.1,0.4-0.3l0.2,0.1c-0.1,0.2-0.3,0.4-0.7,0.4C337.9,183,337.6,182.7,337.6,182.2z M338.8,182c0-0.3-0.2-0.5-0.4-0.5
		c-0.3,0-0.5,0.2-0.5,0.5H338.8z"/>
	<path class="st11" d="M339.4,180.9c0-0.1,0.1-0.2,0.2-0.2c0.1,0,0.2,0.1,0.2,0.2s-0.1,0.2-0.2,0.2
		C339.5,181.1,339.4,181,339.4,180.9z M339.5,181.3h0.3v1.6h-0.3V181.3z"/>
	<path class="st11" d="M340.2,183.3l0.2-0.1c0.1,0.1,0.2,0.2,0.5,0.2c0.3,0,0.5-0.1,0.5-0.4v-0.3h0c-0.1,0.1-0.2,0.3-0.5,0.3
		c-0.4,0-0.7-0.3-0.7-0.8c0-0.5,0.3-0.8,0.7-0.8c0.3,0,0.4,0.2,0.5,0.3h0v-0.3h0.2v1.7c0,0.4-0.3,0.6-0.7,0.6
		C340.5,183.6,340.3,183.5,340.2,183.3z M341.3,182.2c0-0.4-0.2-0.6-0.5-0.6c-0.3,0-0.5,0.3-0.5,0.6c0,0.3,0.2,0.6,0.5,0.6
		C341.1,182.7,341.3,182.5,341.3,182.2z"/>
	<path class="st11" d="M342.2,183H342v-2.2h0.3v0.8h0c0.1-0.2,0.2-0.3,0.5-0.3c0.3,0,0.6,0.2,0.6,0.6v1h-0.3v-1
		c0-0.3-0.1-0.4-0.4-0.4c-0.2,0-0.4,0.2-0.4,0.4V183z"/>
	<path class="st11" d="M344.5,181.6h-0.4v1c0,0.2,0.1,0.2,0.2,0.2c0.1,0,0.1,0,0.1,0l0.1,0.2c0,0-0.1,0-0.2,0
		c-0.2,0-0.4-0.1-0.4-0.4v-1h-0.2v-0.2h0.2V181h0.3v0.4h0.4V181.6z"/>
	<path class="st11" d="M345.6,182.2c0-0.5,0.3-0.9,0.7-0.9s0.7,0.3,0.7,0.9c0,0.5-0.3,0.8-0.7,0.8S345.6,182.7,345.6,182.2z
		 M346.9,182.2c0-0.3-0.2-0.6-0.5-0.6c-0.3,0-0.5,0.3-0.5,0.6s0.2,0.6,0.5,0.6C346.7,182.8,346.9,182.5,346.9,182.2z"/>
	<path class="st11" d="M348.2,181.6h-0.4v1.4h-0.3v-1.4h-0.3v-0.2h0.3v-0.2c0-0.3,0.2-0.4,0.5-0.4c0.1,0,0.2,0,0.2,0l-0.1,0.2
		c0,0-0.1,0-0.1,0c-0.2,0-0.2,0.1-0.2,0.2v0.2h0.4V181.6z"/>
	<path class="st11" d="M350.1,181.6h-0.4v1c0,0.2,0.1,0.2,0.2,0.2c0.1,0,0.1,0,0.1,0l0.1,0.2c0,0-0.1,0-0.2,0
		c-0.2,0-0.4-0.1-0.4-0.4v-1h-0.2v-0.2h0.2V181h0.3v0.4h0.4V181.6z"/>
	<path class="st11" d="M350.8,183h-0.3v-2.2h0.3v0.8h0c0.1-0.2,0.2-0.3,0.5-0.3c0.3,0,0.6,0.2,0.6,0.6v1h-0.3v-1
		c0-0.3-0.1-0.4-0.4-0.4c-0.2,0-0.4,0.2-0.4,0.4V183z"/>
	<path class="st11" d="M352.2,182.2c0-0.5,0.3-0.9,0.7-0.9c0.3,0,0.7,0.2,0.7,0.8v0.1h-1.2c0,0.4,0.2,0.5,0.5,0.5
		c0.2,0,0.3-0.1,0.4-0.3l0.2,0.1c-0.1,0.2-0.3,0.4-0.7,0.4C352.5,183,352.2,182.7,352.2,182.2z M353.4,182c0-0.3-0.2-0.5-0.4-0.5
		c-0.3,0-0.5,0.2-0.5,0.5H353.4z"/>
	<path class="st11" d="M354.9,180.9c0-0.1,0.1-0.2,0.2-0.2c0.1,0,0.2,0.1,0.2,0.2s-0.1,0.2-0.2,0.2
		C354.9,181.1,354.9,181,354.9,180.9z M354.9,181.3h0.3v1.6h-0.3V181.3z"/>
	<path class="st11" d="M355.8,181c0,0.2-0.1,0.4-0.3,0.5l-0.1-0.1c0.1-0.1,0.2-0.3,0.2-0.4v-0.2h0.2V181z"/>
	<path class="st11" d="M356.9,181.8c0-0.1-0.1-0.2-0.4-0.2c-0.2,0-0.4,0.1-0.4,0.2c0,0.1,0.1,0.2,0.3,0.2l0.2,0.1
		c0.3,0.1,0.4,0.2,0.4,0.4c0,0.3-0.3,0.5-0.6,0.5c-0.3,0-0.6-0.1-0.6-0.4l0.2-0.1c0,0.2,0.2,0.3,0.4,0.3c0.2,0,0.4-0.1,0.4-0.3
		c0-0.1-0.1-0.2-0.2-0.2l-0.3-0.1c-0.3-0.1-0.4-0.2-0.4-0.4c0-0.3,0.3-0.5,0.6-0.5c0.3,0,0.5,0.2,0.6,0.4L356.9,181.8z"/>
	<path class="st11" d="M358.3,182.2c0-0.5,0.3-0.8,0.7-0.8c0.3,0,0.4,0.2,0.5,0.3h0v-0.8h0.3v2.2h-0.2v-0.3h0
		c-0.1,0.1-0.2,0.3-0.5,0.3C358.6,183,358.3,182.7,358.3,182.2z M359.5,182.2c0-0.4-0.2-0.6-0.5-0.6c-0.3,0-0.5,0.3-0.5,0.6
		c0,0.4,0.2,0.6,0.5,0.6C359.3,182.8,359.5,182.5,359.5,182.2z"/>
	<path class="st11" d="M360.1,182.2c0-0.5,0.3-0.9,0.7-0.9s0.7,0.3,0.7,0.9c0,0.5-0.3,0.8-0.7,0.8S360.1,182.7,360.1,182.2z
		 M361.4,182.2c0-0.3-0.2-0.6-0.5-0.6c-0.3,0-0.5,0.3-0.5,0.6s0.2,0.6,0.5,0.6C361.2,182.8,361.4,182.5,361.4,182.2z"/>
	<path class="st11" d="M362.7,181.6h-0.4v1c0,0.2,0.1,0.2,0.2,0.2c0.1,0,0.1,0,0.1,0l0.1,0.2c0,0-0.1,0-0.2,0
		c-0.2,0-0.4-0.1-0.4-0.4v-1h-0.2v-0.2h0.2V181h0.3v0.4h0.4V181.6z"/>
	<path class="st11" d="M232.5,163.7c0.1-0.1,0.2-0.3,0.3-0.4c0.1-0.1,0.3-0.1,0.4-0.1c0.1,0,0.2,0,0.3,0.1c0.1,0.1,0.1,0.2,0.1,0.4
		c0,0.2-0.1,0.4-0.3,0.6c-0.2,0.2-0.4,0.3-0.6,0.3c-0.2,0-0.3-0.1-0.5-0.2c-0.1-0.1-0.2-0.3-0.2-0.5c0-0.4,0.1-0.7,0.4-1
		c0.3-0.3,0.6-0.5,1-0.5c0.1,0,0.3,0,0.4,0.1l-0.2,0.2c-0.1-0.1-0.3-0.1-0.4-0.1c-0.2,0-0.4,0.1-0.6,0.3c-0.1,0.1-0.2,0.3-0.2,0.4
		C232.6,163.3,232.5,163.5,232.5,163.7L232.5,163.7z M232.6,163.8c0.1,0.4,0.2,0.5,0.5,0.5c0.1,0,0.2,0,0.3-0.1
		c0.1-0.1,0.1-0.2,0.1-0.3c0-0.2,0-0.3-0.1-0.4c-0.1-0.1-0.2-0.2-0.3-0.2C232.8,163.4,232.7,163.5,232.6,163.8z"/>
	<line class="st8" x1="191.5" y1="185.9" x2="191.5" y2="0"/>
	<path class="st11" d="M192.1,164.4l0.1,0c0.1,0,0.1,0,0.2,0c0,0,0.1-0.1,0.1-0.1l0.5-1.6c0,0,0,0,0-0.1c0,0,0,0,0-0.1
		c0,0,0-0.1,0-0.1c0,0-0.1,0-0.1,0l-0.2,0v0l0,0c0,0,0.1,0,0.2,0c0.1,0,0.2,0,0.3-0.1l0.1,0l0,0l0,0c0,0,0,0,0,0c0,0,0,0,0,0l-0.5,2
		c0,0,0,0,0,0c0,0,0,0,0,0c0,0,0,0.1,0.1,0.1s0.1,0,0.2,0v0L192.1,164.4L192.1,164.4z"/>
	<path class="st11" d="M194.4,162.3h0.2l-0.8,2.2h-0.2L194.4,162.3z"/>
	<path class="st11" d="M193.3,166.3c-0.1,0.1-0.2,0.2-0.2,0.3c-0.1,0.2-0.2,0.4-0.3,0.6c-0.1,0.2-0.1,0.4-0.1,0.6c0,0.2,0,0.3,0,0.4
		c0,0.2,0,0.3,0,0.4c0,0.1,0.1,0.3,0.1,0.5l-0.1,0c-0.1-0.2-0.2-0.4-0.3-0.6c-0.1-0.2-0.1-0.4-0.1-0.6c0-0.3,0-0.5,0.1-0.7
		C192.6,166.8,192.9,166.5,193.3,166.3L193.3,166.3z"/>
	<path class="st11" d="M193.3,168.9C193.3,168.9,193.3,168.8,193.3,168.9c0.1,0,0.1,0,0.2,0c0,0,0,0,0.1,0l0,0c0,0,0,0,0,0s0,0,0,0
		c0.1,0,0.1-0.1,0.3-0.2s0.2-0.2,0.2-0.3c0-0.1,0-0.2-0.1-0.4c0-0.2-0.1-0.3-0.1-0.5c-0.1-0.2-0.1-0.3-0.1-0.4
		c0-0.1-0.1-0.1-0.2-0.1c0,0,0,0,0,0s0,0-0.1,0V167l0.4-0.1l0,0c0,0,0.1,0.1,0.2,0.4c0.1,0.2,0.1,0.4,0.1,0.5l0.1,0.4
		c0.1-0.2,0.2-0.3,0.2-0.4c0.1-0.2,0.2-0.3,0.2-0.4c0,0,0,0,0-0.1c0,0,0,0,0,0l0,0c0,0,0,0-0.1,0c0,0,0-0.1,0-0.1c0,0,0-0.1,0-0.1
		s0.1,0,0.1,0c0.1,0,0.1,0,0.1,0c0,0,0.1,0.1,0.1,0.2c0,0.1-0.1,0.3-0.2,0.6c-0.1,0.2-0.2,0.4-0.3,0.6c-0.2,0.2-0.3,0.4-0.4,0.5
		c-0.2,0.2-0.3,0.3-0.4,0.3c0,0-0.1,0-0.1,0S193.2,169,193.3,168.9C193.2,168.9,193.2,168.9,193.3,168.9z"/>
	<path class="st11" d="M194.8,169c0.1-0.1,0.2-0.2,0.3-0.3c0.1-0.2,0.2-0.3,0.3-0.6c0.1-0.2,0.1-0.4,0.1-0.5s0-0.3,0-0.5
		c0-0.2,0-0.4,0-0.5c0-0.1-0.1-0.3-0.1-0.4l0.1,0c0.1,0.2,0.2,0.4,0.2,0.6c0.1,0.2,0.1,0.4,0.1,0.6c0,0.2,0,0.5-0.1,0.6
		C195.5,168.4,195.3,168.7,194.8,169L194.8,169z"/>
	<path class="st11" d="M194.9,163.7c0.1-0.1,0.2-0.3,0.3-0.4c0.1-0.1,0.3-0.1,0.4-0.1c0.1,0,0.2,0,0.3,0.1c0.1,0.1,0.1,0.2,0.1,0.4
		c0,0.2-0.1,0.4-0.3,0.6c-0.2,0.2-0.4,0.3-0.6,0.3c-0.2,0-0.3-0.1-0.5-0.2c-0.1-0.1-0.2-0.3-0.2-0.5c0-0.4,0.1-0.7,0.4-1
		c0.3-0.3,0.6-0.5,1-0.5c0.1,0,0.3,0,0.4,0.1l-0.2,0.2c-0.1-0.1-0.3-0.1-0.4-0.1c-0.2,0-0.4,0.1-0.6,0.3c-0.1,0.1-0.2,0.3-0.2,0.4
		C195,163.3,194.9,163.5,194.9,163.7L194.9,163.7z M195,163.8c0.1,0.4,0.2,0.5,0.5,0.5c0.1,0,0.2,0,0.3-0.1c0.1-0.1,0.1-0.2,0.1-0.3
		c0-0.2,0-0.3-0.1-0.4c-0.1-0.1-0.2-0.2-0.3-0.2C195.2,163.4,195.1,163.5,195,163.8z"/>
	<line class="st7" x1="44.6" y1="185.9" x2="44.6" y2="0"/>
	<path class="st12" d="M152.7,27.4V0h11.5v27.8c0,4.5,2.3,7.6,8,7.6c5.3,0,7.9-3.2,7.9-7.8V0h11.5v27.4c0,10.7-6.4,17.2-19.4,17.2
		C159.2,44.6,152.7,38.3,152.7,27.4z"/>
	<path class="st12" d="M191.5,158.5v27.4H180v-27.8c0-4.5-2.3-7.6-8-7.6c-5.3,0-7.9,3.2-7.9,7.8v27.6h-11.5v-27.4
		c0-10.7,6.4-17.2,19.4-17.2C185,141.3,191.5,147.6,191.5,158.5z"/>
	<path class="st12" d="M27.4,113.6H0v-11.5h27.8c4.5,0,7.6-2.3,7.6-8c0-5.3-3.2-7.9-7.8-7.9H0V74.8h27.4c10.7,0,17.2,6.4,17.2,19.4
		C44.6,107.1,38.3,113.6,27.4,113.6z"/>
	<path class="st12" d="M339.5,74.8h27.4v11.5h-27.8c-4.5,0-7.6,2.3-7.6,8c0,5.3,3.2,7.9,7.8,7.9h27.6v11.5h-27.4
		c-10.7,0-17.2-6.4-17.2-19.4C322.2,81.3,328.6,74.8,339.5,74.8z"/>
	<line class="st13" x1="0" y1="44.6" x2="364.8" y2="44.6"/>
	<line class="st13" x1="0" y1="141.3" x2="366.8" y2="141.3"/>
</g>
</svg>
