<svg width="87" height="98" viewBox="0 0 87 98" fill="none" xmlns="http://www.w3.org/2000/svg">
<path d="M47.1401 18.2436L62.4401 27.0736C62.9901 27.3836 63.0101 28.2436 62.4401 28.5536L44.2601 39.0536C43.7101 39.3736 43.0601 39.3536 42.5501 39.0536L24.3701 28.5536C23.8101 28.2536 23.8001 27.3736 24.3701 27.0736L39.6601 18.2436V0.953613L0.620117 23.4936V68.5736L15.5901 59.9336V42.2736C15.5801 41.6436 16.3201 41.1936 16.8701 41.5336L35.0501 52.0336C35.6001 52.3536 35.9101 52.9236 35.9101 53.5136V74.5036C35.9201 75.1336 35.1801 75.5836 34.6301 75.2436L19.3301 66.4136L4.36012 75.0536L43.4001 97.5936L82.4401 75.0536L67.4701 66.4136L52.1701 75.2436C51.6301 75.5736 50.8701 75.1436 50.8901 74.5036V53.5136C50.8901 52.8836 51.2401 52.3236 51.7501 52.0336L69.9301 41.5336C70.4701 41.2036 71.2301 41.6236 71.2101 42.2736V59.9336L86.1801 68.5736V23.4936L47.1401 0.953613V18.2436Z" fill="black"/>
</svg>
