<svg width="86" height="98" viewBox="0 0 86 98" fill="none" xmlns="http://www.w3.org/2000/svg">
<path d="M46.52 18.1699L61.82 26.9999C62.37 27.3099 62.39 28.1699 61.82 28.4799L43.64 38.9799C43.09 39.2999 42.44 39.2799 41.93 38.9799L23.75 28.4799C23.19 28.1799 23.18 27.2999 23.75 26.9999L39.04 18.1699V0.879883L0 23.4199V68.4999L14.97 59.8599V42.1999C14.96 41.5699 15.7 41.1199 16.25 41.4599L34.43 51.9599C34.98 52.2799 35.29 52.8499 35.29 53.4399V74.4299C35.3 75.0599 34.56 75.5099 34.01 75.1699L18.71 66.3399L3.74 74.9799L42.78 97.5199L81.82 74.9799L66.85 66.3399L51.55 75.1699C51.01 75.4999 50.25 75.0699 50.27 74.4299V53.4399C50.27 52.8099 50.62 52.2499 51.13 51.9599L69.31 41.4599C69.85 41.1299 70.61 41.5499 70.59 42.1999V59.8599L85.56 68.4999V23.4199L46.52 0.879883V18.1699Z" fill="white"/>
</svg>
